<?xml version="1.0" encoding="iso-8859-1"?>
<!-- Generator: Adobe Illustrator 19.0.0, SVG Export Plug-In . SVG Version: 6.00 Build 0)  -->
<svg version="1.1" id="Layer_1" xmlns="http://www.w3.org/2000/svg" xmlns:xlink="http://www.w3.org/1999/xlink" x="0px" y="0px"
	 viewBox="0 0 512 512" style="enable-background:new 0 0 512 512;" xml:space="preserve">
<path style="fill:#E5E5E5;" d="M488.05,504.017H23.95c-8.818,0-15.967-7.149-15.967-15.967V23.95
	c0-8.818,7.149-15.967,15.967-15.967h464.1c8.818,0,15.967,7.149,15.967,15.967v464.1
	C504.017,496.868,496.868,504.017,488.05,504.017z"/>
<path style="fill:#808080;" d="M504.017,23.95c0-8.818-7.149-15.967-15.967-15.967H23.95c-8.818,0-15.967,7.149-15.967,15.967v39.03
	h496.033V23.95z"/>
<path style="fill:#CCCCCC;" d="M44.175,488.05V23.95c0-8.818,7.149-15.967,15.967-15.967H23.95c-8.818,0-15.967,7.149-15.967,15.967
	v464.1c0,8.818,7.149,15.967,15.967,15.967h36.191C51.323,504.017,44.175,496.868,44.175,488.05z"/>
<path style="fill:#666666;" d="M60.141,7.983H23.95c-8.818,0-15.967,7.149-15.967,15.967v39.03h36.191V23.95
	C44.175,15.132,51.323,7.983,60.141,7.983z"/>
<rect x="107.509" y="112.299" style="fill:#FB9D46;" width="102.187" height="29.805"/>
<polygon style="fill:#FFD652;" points="239.501,261.322 77.705,261.322 107.509,142.104 209.696,142.104 "/>
<polygon style="fill:#FB9D46;" points="107.509,142.104 77.705,261.322 125.33,261.322 125.33,142.104 "/>
<polygon style="fill:#4F5AA8;" points="391.185,465.696 348.607,465.696 414.603,389.056 455.052,389.056 "/>
<polygon style="fill:#458FDE;" points="280.482,316.674 280.482,346.478 280.482,465.696 320.931,465.696 335.834,369.896 
	348.607,465.696 391.185,465.696 391.185,346.478 391.185,316.674 "/>
<path style="fill:#AFF078;" d="M219.277,461.439H97.929v-53.222c0-17.637,14.297-31.933,31.933-31.933h57.48
	c17.637,0,31.933,14.297,31.933,31.933V461.439z"/>
<circle style="fill:#F7EDBC;" cx="187.343" cy="408.216" r="12.773"/>
<path style="fill:#5AC779;" d="M155.41,376.283h-25.547c-17.637,0-31.933,14.297-31.933,31.933v53.222h25.547v-53.222
	C123.476,390.579,137.773,376.283,155.41,376.283z"/>
<path style="fill:#FF7452;" d="M392.249,261.322h-87.285c-8.818,0-15.967-7.149-15.967-15.967v-57.48
	c0-8.818,7.149-15.967,15.967-15.967h87.285c8.818,0,15.967,7.149,15.967,15.967v57.48
	C408.216,254.173,401.067,261.322,392.249,261.322z"/>
<path style="fill:#E24642;" d="M312.416,245.356v-57.48c0-8.818,7.149-15.967,15.967-15.967h-23.418
	c-8.818,0-15.967,7.149-15.967,15.967v57.48c0,8.818,7.149,15.967,15.967,15.967h23.418
	C319.565,261.322,312.416,254.173,312.416,245.356z"/>
<path d="M504.017,191.601c-4.41,0-7.983,3.574-7.983,7.983V488.05c0,4.403-3.581,7.983-7.983,7.983H23.95
	c-4.403,0-7.983-3.581-7.983-7.983v-75.576c0-4.409-3.574-7.983-7.983-7.983S0,408.065,0,412.474v75.576
	C0,501.257,10.743,512,23.95,512h464.1c13.206,0,23.95-10.743,23.95-23.95V199.584C512,195.175,508.427,191.601,504.017,191.601z"/>
<path d="M488.05,0H23.95C10.743,0,0,10.743,0,23.95v39.03v309.045c0,4.409,3.574,7.983,7.983,7.983s7.983-3.574,7.983-7.983V70.964
	h480.067v92.429c0,4.409,3.573,7.983,7.983,7.983c4.41,0,7.983-3.574,7.983-7.983V62.98V23.95C512,10.743,501.255,0,488.05,0z
	 M15.967,54.997V23.95c0-4.403,3.581-7.983,7.983-7.983h464.1c4.403,0,7.983,3.581,7.983,7.983v31.047H15.967z"/>
<path d="M459.31,31.933H335.834c-4.41,0-7.983,3.574-7.983,7.983s3.573,7.983,7.983,7.983H459.31c4.41,0,7.983-3.574,7.983-7.983
	S463.72,31.933,459.31,31.933z"/>
<path d="M310.287,31.933h-29.805c-4.41,0-7.983,3.574-7.983,7.983s3.573,7.983,7.983,7.983h29.805c4.41,0,7.983-3.574,7.983-7.983
	S314.697,31.933,310.287,31.933z"/>
<path d="M209.696,104.316H107.509c-4.409,0-7.983,3.574-7.983,7.983v28.823L69.96,259.386c-0.597,2.384-0.061,4.911,1.452,6.85
	s3.834,3.07,6.293,3.07h80.898h80.898c2.459,0,4.779-1.133,6.293-3.07c1.514-1.937,2.049-4.464,1.452-6.85L217.68,141.123v-28.823
	C217.68,107.89,214.105,104.316,209.696,104.316z M201.713,120.283v13.838h-86.22v-13.838H201.713z M158.603,253.339H87.93
	l25.813-103.252h13.346l-8.164,32.658c-1.07,4.277,1.531,8.611,5.809,9.681c0.649,0.163,1.301,0.241,1.943,0.241
	c3.577,0,6.832-2.422,7.739-6.049l9.133-36.531h7.072v43.11c0,4.409,3.574,7.983,7.983,7.983c4.409,0,7.983-3.574,7.983-7.983
	v-43.11h7.072l9.133,36.531c0.907,3.628,4.162,6.049,7.739,6.049c0.641,0,1.292-0.078,1.943-0.241
	c4.278-1.069,6.878-5.404,5.809-9.681l-8.164-32.658h13.346l25.813,103.252H158.603z"/>
<path d="M272.499,316.674v61.888c0,0.002,0,0.004,0,0.006v87.128c0,4.409,3.573,7.983,7.983,7.983h40.449
	c3.935,0,7.284-2.868,7.889-6.756l6.406-41.181l5.468,41.009c0.529,3.966,3.913,6.928,7.914,6.928h42.578
	c2.972,0,5.559-1.626,6.933-4.034c0.345-0.293,0.675-0.608,0.975-0.968l62.093-74.511c1.983-2.379,2.411-5.692,1.096-8.496
	c-1.315-2.805-4.133-4.597-7.231-4.597h-40.449c-2.325,0-4.533,1.013-6.05,2.774l-9.384,10.898v-16.176c0-0.002,0-0.004,0-0.006
	v-61.888c0-4.409-3.573-7.983-7.983-7.983H280.482C276.072,308.69,272.499,312.265,272.499,316.674z M314.093,457.713h-25.628
	v-77.358l28.809-55.698h10.575v44.62L314.093,457.713z M355.596,457.713l-11.779-88.349v-44.707h10.575l28.809,55.698v77.358
	H355.596z M400.487,417.683l17.776-20.644h19.743l-38.839,46.607v-24.747C399.642,418.549,400.087,418.149,400.487,417.683z
	 M383.202,345.599l-10.832-20.942h10.832V345.599z M299.298,324.657l-10.832,20.942v-20.942H299.298z"/>
<path d="M60.141,465.696c0,4.409,3.574,7.983,7.983,7.983h180.956c4.409,0,7.983-3.574,7.983-7.983s-3.574-7.983-7.983-7.983H227.26
	v-49.497c0-22.011-17.906-39.917-39.917-39.917h-57.48c-22.011,0-39.917,17.906-39.917,39.917v49.497H68.125
	C63.716,457.713,60.141,461.288,60.141,465.696z M105.913,408.216c0-13.207,10.743-23.95,23.95-23.95h57.48
	c13.207,0,23.95,10.743,23.95,23.95v49.497h-105.38V408.216z"/>
<path d="M392.249,269.306c13.206,0,23.95-10.743,23.95-23.95v-57.48c0-11.777-8.548-21.589-19.763-23.576
	c-3.662-23.103-23.713-40.823-47.83-40.823c-24.117,0-44.168,17.72-47.83,40.823c-11.215,1.987-19.763,11.799-19.763,23.576v57.48
	c0,13.207,10.745,23.95,23.95,23.95H392.249z M348.607,139.443c15.147,0,27.902,10.428,31.469,24.482h-62.94
	C320.705,149.871,333.46,139.443,348.607,139.443z M296.981,187.875c0-4.403,3.581-7.983,7.983-7.983h87.285
	c4.403,0,7.983,3.581,7.983,7.983v14.902c0,4.403-3.581,7.983-7.983,7.983h-87.285c-4.403,0-7.983-3.581-7.983-7.983V187.875z
	 M296.981,245.356v-20.001c2.498,0.887,5.185,1.373,7.983,1.373h35.659v6.919c0,4.409,3.573,7.983,7.983,7.983
	c4.41,0,7.983-3.574,7.983-7.983v-6.919h35.659c2.798,0,5.485-0.488,7.983-1.373v20.001c0,4.403-3.581,7.983-7.983,7.983h-87.285
	C300.562,253.339,296.981,249.758,296.981,245.356z"/>
<g>
</g>
<g>
</g>
<g>
</g>
<g>
</g>
<g>
</g>
<g>
</g>
<g>
</g>
<g>
</g>
<g>
</g>
<g>
</g>
<g>
</g>
<g>
</g>
<g>
</g>
<g>
</g>
<g>
</g>
</svg>
